<svg id="Layer_6" data-name="Layer 6" xmlns="http://www.w3.org/2000/svg" viewBox="0 0 23.8955 26.8581"><defs><style>.cls-1{fill:#ff5d60;}</style></defs><title>lit_logo_v2_icon_transparentai</title><path class="cls-1" d="M30.7605,24.0812a.8935.8935,0,0,0,.0853-.9612l-3.9131-7.4727a.8825.8825,0,0,0-1.6011.0816l-.6168,1.542c-.1141-.312-.2346-.6738-.3426-.9983-.2665-.8-1.9776-3.1056-3.0009-4.92A5.26,5.26,0,0,1,20.9123,7.74a9.9167,9.9167,0,0,0-.983,3.9732c.0479,1.4837.504,3.3112-.1518,4.2039a.5347.5347,0,0,1-.4948.2149c-.362-.0543-.7709-.5148-1.0077-1.261-.8307-2.6184.3778-5.4666.676-7.7733A7.9834,7.9834,0,0,0,18.28,3.0709a5.81,5.81,0,0,1-.4657,3.768c-1.063,2.2212-3.3294,5.0916-3.555,8.1616a8.2039,8.2039,0,0,1-.553,2.9232,2.33,2.33,0,0,1-.3122-.3814l-.7254-1.8134a.8825.8825,0,0,0-1.6011-.0816L7.1542,23.12a.8935.8935,0,0,0,.0854.9613l1.8549,1.6961a1.592,1.592,0,0,1,.4076,1.2544l-.4172,2.4324c-.0693.4039.1708.5783.5335.3876l2.1844-1.1484a1.592,1.592,0,0,1,1.3189,0l2.1845,1.1484c.3627.1907.6028.0162.5335-.3876l-.4172-2.4324a1.592,1.592,0,0,1,.4076-1.2544l.9952-.97h4.3494l.9952.97a1.592,1.592,0,0,1,.4076,1.2544L22.16,29.4641c-.0693.4039.1708.5783.5335.3876l2.1845-1.1484a1.592,1.592,0,0,1,1.3189,0l2.1845,1.1484c.3627.1907.6028.0162.5335-.3876l-.4172-2.4324a1.592,1.592,0,0,1,.4076-1.2544Zm-18.9727-5.739.0346.0587c.1652.28,1.0526,1.664,2.2889,1.3751,1.1336-.265,1.7111-1.654,1.9309-4.6444.0441-.5994.1033-1.163.1737-1.6908a8.2759,8.2759,0,0,0,.38,2.0441c.6908,1.889,1.8139,2.324,2.4218,2.4152a2.3159,2.3159,0,0,0,2.1851-.9034,2.978,2.978,0,0,0,.6859-1.7689c.2876.7273.5269,1.0285.7872,1.61.2829.6318.4077,1.224.6049,1.6563.1368.3.5,1.0957,1.291,1.1586.917.0729,1.4159-.884,1.6286-1.2926l.0207-.04.04-.1009L28.85,23.1622h-.2068l-.616-.09a1.592,1.592,0,0,1-1.067-.7752l-1.0923-2.2131c-.1813-.3675-.4781-.3675-.6595,0l-1.0923,2.2131a1.592,1.592,0,0,1-1.067.7752l-.616.09H15.5675l-.6162-.09a1.592,1.592,0,0,1-1.067-.7752L12.792,20.0843c-.1814-.3675-.4781-.3675-.6595,0L11.04,22.2974a1.592,1.592,0,0,1-1.067.7753l-.6162.09H9.15l2.5883-4.9427Z" transform="translate(-7.0522 -3.0709)"/></svg>